<svg width="95" height="98" viewBox="0 0 95 98" fill="none" xmlns="http://www.w3.org/2000/svg">
<path d="M26.8679 14.5003C24.3972 14.4996 21.9708 15.1497 19.8373 16.3839C17.7038 17.6182 15.9401 19.3922 14.7269 21.5241C13.5136 23.656 12.8946 26.0691 12.9332 28.5161C12.9717 30.9631 13.6665 33.3559 14.9464 35.4492C11.7676 36.0576 8.90188 37.7432 6.84116 40.2165C4.78044 42.6898 3.65332 45.7966 3.65332 49.0034C3.65332 52.2103 4.78044 55.3171 6.84116 57.7904C8.90188 60.2637 11.7676 61.9493 14.9464 62.5577M26.8679 14.5003C26.8679 11.4502 28.0912 8.52508 30.2685 6.36836C32.4459 4.21163 35.3991 3 38.4783 3C41.5576 3 44.5107 4.21163 46.6881 6.36836C48.8655 8.52508 50.0887 11.4502 50.0887 14.5003V21.4005M26.8679 14.5003C26.8679 18.2632 28.6931 21.6029 31.5121 23.7005M14.9464 62.5577C13.6677 64.6509 12.9739 67.0433 12.9359 69.4895C12.898 71.9358 13.5172 74.3481 14.7303 76.4793C15.9434 78.6105 17.7067 80.384 19.8395 81.618C21.9723 82.852 24.3979 83.5022 26.8679 83.502C26.8685 86.5521 28.0924 89.477 30.2702 91.6333C32.448 93.7896 35.4014 95.0006 38.4806 95C41.5599 94.9994 44.5128 93.7872 46.6897 91.63C48.8667 89.4729 50.0893 86.5475 50.0887 83.4974V76.6018M14.9464 62.5577C16.6131 59.8246 19.1849 57.7486 22.2238 56.6833M61.6991 62.8015V72.0017M75.6316 62.8015V72.0017M61.6991 26.0006V35.2008M75.6316 26.0006V35.2008M54.7329 42.101H45.4446M54.7329 55.9013H45.4446M91.8861 42.101H82.5978M91.8861 55.9013H82.5978M73.3095 35.2008H64.0212C59.6417 35.2008 57.4543 35.2008 56.0936 36.5486C54.7329 37.8965 54.7329 40.0631 54.7329 44.401V53.6013C54.7329 57.9392 54.7329 60.1058 56.0936 61.4537C57.4543 62.8015 59.6417 62.8015 64.0212 62.8015H73.3095C77.6889 62.8015 79.8763 62.8015 81.2371 61.4537C82.5978 60.1058 82.5978 57.9392 82.5978 53.6013V44.401C82.5978 40.0631 82.5978 37.8965 81.2371 36.5486C79.8763 35.2008 77.6889 35.2008 73.3095 35.2008Z" stroke="white" stroke-width="6" stroke-linecap="round" stroke-linejoin="round"/>
</svg>