<svg width="79" height="79" viewBox="0 0 79 79" fill="none" xmlns="http://www.w3.org/2000/svg">
<path d="M47.4 51.35C48.5192 51.35 49.4909 50.9392 50.3151 50.1176C51.1393 49.296 51.5501 48.3243 51.5475 47.2025C51.5449 46.0807 51.1341 45.1103 50.3151 44.2914C49.4961 43.4724 48.5244 43.0603 47.4 43.055C46.2756 43.0497 45.3052 43.4619 44.4888 44.2914C43.6725 45.1209 43.2604 46.0912 43.2525 47.2025C43.2446 48.3138 43.6567 49.2855 44.4888 50.1176C45.321 50.9497 46.2914 51.3605 47.4 51.35ZM44.4375 38.71H50.3625C50.3625 36.8008 50.56 35.4025 50.955 34.5151C51.35 33.6277 52.2717 32.4585 53.72 31.0075C55.695 29.0325 57.0117 27.4367 57.67 26.2201C58.3283 25.0035 58.6575 23.571 58.6575 21.9225C58.6575 18.96 57.62 16.5413 55.5449 14.6663C53.4698 12.7914 50.7549 11.8526 47.4 11.85C44.7008 11.85 42.3479 12.6071 40.3413 14.1212C38.3347 15.6354 36.9351 17.6433 36.1425 20.145L41.475 22.3175C42.0675 20.6717 42.8746 19.438 43.8963 18.6164C44.9181 17.7948 46.086 17.3826 47.4 17.38C48.98 17.38 50.2637 17.825 51.2512 18.7151C52.2387 19.6052 52.7325 20.806 52.7325 22.3175C52.7325 23.2392 52.4692 24.1121 51.9425 24.9363C51.4158 25.7606 50.4942 26.7968 49.1775 28.045C47.005 29.9542 45.6725 31.4525 45.1801 32.5401C44.6877 33.6277 44.4401 35.6843 44.4375 38.71ZM23.7 63.2C21.5275 63.2 19.6684 62.4271 18.1226 60.8814C16.5768 59.3356 15.8026 57.4751 15.8 55.3V7.9C15.8 5.7275 16.5742 3.86837 18.1226 2.3226C19.671 0.776834 21.5301 0.00263333 23.7 0H71.1C73.2725 0 75.1329 0.7742 76.6813 2.3226C78.2297 3.871 79.0026 5.73013 79 7.9V55.3C79 57.4725 78.2271 59.333 76.6813 60.8814C75.1356 62.4298 73.2751 63.2026 71.1 63.2H23.7ZM7.9 79C5.7275 79 3.86837 78.2271 2.3226 76.6814C0.776833 75.1356 0.00263333 73.2751 0 71.1V15.8H7.9V71.1H63.2V79H7.9Z" fill="#0056D1"/>
</svg>
