<svg width="22" height="26" viewBox="0 0 22 26" fill="none" xmlns="http://www.w3.org/2000/svg">
<path d="M11.3242 24.7968L11.3113 24.7991L11.2282 24.8393L11.2047 24.8439L11.1884 24.8393L11.1052 24.7991C11.0927 24.7952 11.0833 24.7971 11.0771 24.8048L11.0724 24.8163L11.0525 25.3085L11.0584 25.3315L11.0701 25.3465L11.1919 25.4316L11.2094 25.4362L11.2235 25.4316L11.3453 25.3465L11.3593 25.3281L11.364 25.3085L11.3441 24.8175C11.341 24.8052 11.3343 24.7983 11.3242 24.7968ZM11.6345 24.6668L11.6193 24.6691L11.4027 24.7761L11.3909 24.7876L11.3874 24.8002L11.4085 25.2947L11.4144 25.3085L11.4237 25.3166L11.6591 25.4235C11.674 25.4273 11.6853 25.4243 11.6931 25.4143L11.6978 25.3982L11.658 24.6921C11.6541 24.6783 11.6462 24.6699 11.6345 24.6668ZM10.7972 24.6691C10.7921 24.666 10.7859 24.665 10.78 24.6663C10.7741 24.6676 10.7689 24.6711 10.7656 24.676L10.7586 24.6921L10.7188 25.3982C10.7195 25.412 10.7262 25.4212 10.7387 25.4258L10.7562 25.4235L10.9916 25.3166L11.0033 25.3074L11.008 25.2947L11.0279 24.8002L11.0244 24.7864L11.0127 24.7749L10.7972 24.6691Z" fill="white"/>
<path d="M10.6298 0.350098C11.73 0.350098 12.8021 0.474298 13.8306 0.707748C13.9829 0.739883 14.1271 0.801364 14.2549 0.888612C14.3826 0.975861 14.4914 1.08713 14.5748 1.21595C14.6582 1.34476 14.7147 1.48855 14.7408 1.63893C14.7669 1.78931 14.7623 1.94328 14.7271 2.09187C14.6919 2.24047 14.6268 2.38072 14.5357 2.50446C14.4447 2.6282 14.3294 2.73296 14.1965 2.81263C14.0637 2.8923 13.916 2.9453 13.7621 2.96853C13.6082 2.99176 13.451 2.98476 13.2999 2.94795C12.7209 2.81627 12.1325 2.72785 11.5398 2.68345L11.0467 2.657L11.4459 2.68C13.1444 2.80637 14.786 3.33522 16.2295 4.221L16.55 4.4257L17.2616 3.7288C17.4724 3.52036 17.7566 3.39871 18.056 3.38876C18.3554 3.37881 18.6473 3.48131 18.8721 3.67528C19.0968 3.86925 19.2374 4.14002 19.265 4.43217C19.2926 4.72431 19.2051 5.01574 19.0205 5.2468L18.923 5.3549L18.3418 5.92415C19.9851 7.64194 20.9814 9.85704 21.1664 12.204C21.3513 14.551 20.714 16.8896 19.3593 18.834C18.0047 20.7785 16.0138 22.2126 13.7151 22.8998C11.4163 23.5869 8.94709 23.4861 6.71471 22.614C4.48233 21.7418 2.62019 20.1504 1.4355 18.1023C0.250805 16.0542 -0.185663 13.6717 0.198101 11.348C0.581865 9.02423 1.76293 6.89802 3.54646 5.32013C5.32998 3.74223 7.60941 2.80692 10.0087 2.6685L10.2423 2.657L10.1719 2.65815C9.56445 2.68191 8.9711 2.74861 8.39184 2.85825L7.95974 2.94795C7.65845 3.01154 7.34371 2.95655 7.08345 2.79486C6.82318 2.63317 6.63826 2.37774 6.5686 2.08369C6.49894 1.78964 6.55011 1.48055 6.71109 1.22313C6.87206 0.96571 7.12992 0.780599 7.42901 0.707748C8.45759 0.474298 9.53079 0.350098 10.6298 0.350098ZM10.6298 7.2501C10.3184 7.2501 10.0198 7.37126 9.79955 7.58693C9.57935 7.80259 9.45564 8.0951 9.45564 8.4001V13.0001C9.45564 13.3051 9.57935 13.5976 9.79955 13.8133C10.0198 14.0289 10.3184 14.1501 10.6298 14.1501C10.9412 14.1501 11.2399 14.0289 11.4601 13.8133C11.6803 13.5976 11.804 13.3051 11.804 13.0001V8.4001C11.804 8.0951 11.6803 7.80259 11.4601 7.58693C11.2399 7.37126 10.9412 7.2501 10.6298 7.2501Z" fill="white"/>
</svg>
